<svg viewBox="0 0 333.78 333.78" xmlns="http://www.w3.org/2000/svg">
   <path fill="#0074b9"
      d="M166.89 50.344c-32.18 0-61.316 13.047-82.406 34.14-21.093 21.09-34.14 50.23-34.14 82.407 0 32.176 13.047 61.312 34.14 82.406 21.09 21.09 50.227 34.14 82.407 34.14 32.176 0 61.312-13.05 82.406-34.14 21.094-21.094 34.14-50.231 34.14-82.406 0-32.18-13.046-61.317-34.14-82.407-21.094-21.093-50.231-34.14-82.406-34.14zm0 5.668c30.616 0 58.331 12.414 78.4 32.48 20.061 20.067 32.476 47.785 32.476 78.399 0 30.613-12.414 58.332-32.477 78.398-20.066 20.063-47.785 32.477-78.398 32.477-30.614 0-58.332-12.414-78.399-32.477-20.066-20.066-32.476-47.785-32.476-78.398 0-30.614 12.41-58.332 32.476-78.399 20.067-20.066 47.786-32.48 78.399-32.48zm-2 .484l-2.171 6.434c-27.071 1.07-51.495 12.459-69.41 30.379-18.02 18.015-29.46 42.609-30.418 69.867h4.254c.953-26.083 11.922-49.615 29.168-66.863 16.823-16.825 39.633-27.64 64.945-29.051l-7.16 21.215c-17.942 2.403-34.012 10.703-46.2 22.89-11.164 11.164-19.07 25.592-22.164 41.725h11.582c2.926-12.996 9.504-24.61 18.598-33.703 12.535-12.535 29.852-20.291 48.977-20.291V56.496zm5.915 6.399v4.257c26.004 1 49.457 11.958 66.66 29.16 16.824 16.825 27.645 39.632 29.055 64.946l-21.215-7.16c-2.403-17.942-10.703-34.012-22.895-46.2a80.972 80.972 0 0 0-6.86-6.125 58.88 58.88 0 0 0-2.413 6.887h-.004a73.89 73.89 0 0 0-1.203 4.91c.84.762 1.664 1.543 2.465 2.344 12.535 12.535 20.289 29.852 20.289 48.977h42.597l-6.418-2.166c-1.068-27.077-12.475-51.501-30.39-69.416-17.977-17.977-42.492-29.407-69.668-30.414zm9.886 22.84v11.581a68.5 68.5 0 0 1 6.22 1.711c2.56-3.332 5.644-6.27 9.327-8.636a79.778 79.778 0 0 0-15.547-4.657zm25 9.324a27.814 27.814 0 0 0-3.894 1.875c-2.524 1.472-4.715 3.304-6.606 5.402a68.82 68.82 0 0 1 9.391 5.422c.121-.465.25-.934.383-1.406v-.016c.89-3.133 2.04-6.39 3.523-9.586a78.182 78.182 0 0 0-2.797-1.691zm.551 28.156c0 7.832.903 13.28 2.914 19.297 1.043 3.11 1.985 5.23 3.301 7.808.84 1.645 3.676 5.875 4.004 7.102l.976.8-4.53-.355.445 11.551v.89c1.953 2.248 4 9.024 4 13.325v2.222c0 9.16-3.426 11.407-4.891 16.883 7.789-9.539 12.887-21.445 12.887-35.984v-2.223c0-2.25-.38-5.11-1.02-8.18-3.016-14.51-9.137-24.91-18.086-33.136zM56.496 168.89l6.434 2.172c1.072 27.07 12.462 51.494 30.379 69.41 18.226 18.227 43.18 29.726 70.812 30.449v-4.254c-26.457-.723-50.352-11.743-67.809-29.203-16.82-16.823-27.637-39.63-29.048-64.942l21.213 7.16c2.403 17.938 10.703 34.01 22.89 46.2 11.164 11.164 25.59 19.07 41.723 22.164V236.46c-12.996-2.926-24.61-9.504-33.703-18.598-12.535-12.539-20.29-29.848-20.29-48.972h-42.6zm210.164.963c-.769 26.38-11.781 50.197-29.195 67.61-16.822 16.826-39.626 27.645-64.942 29.056l7.16-21.215c17.939-2.403 34.012-10.709 46.2-22.897 11.164-11.164 19.07-25.586 22.164-41.719h-11.582c-2.926 12.993-9.504 24.612-18.602 33.706-12.535 12.535-29.847 20.289-48.972 20.289v42.6l2.166-6.419c27.074-1.065 51.495-12.476 69.416-30.392 18.183-18.184 29.668-43.065 30.441-70.62h-4.254z" />
   <path fill="#00afef"
      d="M123.2 206.703c7.081 7.082 15.6 13.8 27.066 16.473-8.067-10.082-15.551-23.399-15.551-37.23 0-29.477 15.953-41.055 41.762-49.403 2.714-.871 5.218-1.121 7.554-.445 1.5 0 3.867 6.082 5.004 7.433 2.254 2.672 3.692 4.274 6.203 6.684 3.168 3.043 11.762 7.52 17.668 7.652l4.531.356-.976-.801c-.328-1.227-3.164-5.457-4.004-7.102-1.316-2.574-2.258-4.699-3.3-7.808-2.012-6.016-2.915-11.465-2.915-19.297.594-6.836 2.75-23.524 12.442-34.653-17.575 0-25.72 8.626-34.211 22.211-6.328-2.308-13.555-3.109-19.102-3.109-49.254 0-76.82 64.398-42.172 99.04" />
   <path fill="#0096da"
      d="M159.594 224.953c25.125 0 36.117-5.465 52.867-22.215 1.465-5.476 4.887-7.722 4.887-16.883v-2.218c0-4.305-2.043-11.082-3.996-13.332 0 12.05-15.125 24.625-26.657 24.879-8.984 0-15.55-1.72-22.215-7.551-9.27-9.93-13.136-22.887-6.664-35.985 1.008-2.043 3-4.933 4.543-6.562 1.692-1.785 4.328-3.719 6.47-5.086 2.015-1.29 5.87-2.871 7.648-3.457-25.813 8.348-41.762 19.926-41.762 49.402 0 13.832 7.484 27.149 15.55 37.23" />
   <path fill="#8fd8f8"
      d="M188.473 153.426c-7.532 0-19.352.625-23.993 7.55 10.258-4.921 21.579-.656 23.301 11.137.797 5.438-1.246 11.09-6.894 14.715-3.715 2.39-8.946 2.668-16.407.805 6.668 5.832 13.23 7.554 22.215 7.554 11.532-.257 26.657-12.832 26.657-24.878v-.891c-4.02-9.777-13.047-15.992-24.88-15.992" />
</svg>